# xmcd
#
# Track frame offsets: 
#        150
#        13292
#        23984
#        37197
#        47466
#        59532
#        72523
#        86174
#        98134
#        108804
#        118495
#        131931
#        145883
#        161989
#        172958
#        185492
#        197801
#        211051
#        225076
#        237256
#
# Disc length: 3353 seconds
#
# Revision: 0
# Processed by: cddbd v1.5.2PL0 Copyright (c) Steve Scherf et al.
# Submitted via: ExactAudioCopy v1.1
#
DISCID=250d1714
DTITLE=B.B.King - B.B.King - Milestones of a Blues Legend cd 03 - B.B.
DTITLE=King Wails (1958)
DYEAR=1958
DGENRE=Blues
TTITLE0=Sweet Thing
TTITLE1=I’ve Got Papers on You Baby
TTITLE2=Tomorrow Is another Day
TTITLE3=Come by Here
TTITLE4=The Fool
TTITLE5=I Love You So
TTITLE6=The Woman I Love
TTITLE7=We Can’t Make It
TTITLE8=Treat Me Right
TTITLE9=Time to Say Goodbye
TTITLE10=Story from My Heart and Soul (Bonus Track)
TTITLE11=She Don’t Move Me No More (Bonus Track)
TTITLE12=My Own Fault, Darling (Bonus Track)
TTITLE13=Gotta Find My Baby (Bonus Track)
TTITLE14=Highway Bound (Bonus Track)
TTITLE15=Please Hurry Home (Bonus Track)
TTITLE16=Neighbourhood Affair (Bonus Track)
TTITLE17=Why Did You Leave Me (Bonus Track)
TTITLE18=The Woman I Love (Bonus Track)
TTITLE19=Whole Lotta Love (Bonus Track)
EXTD=
EXTT0=
EXTT1=
EXTT2=
EXTT3=
EXTT4=
EXTT5=
EXTT6=
EXTT7=
EXTT8=
EXTT9=
EXTT10=
EXTT11=
EXTT12=
EXTT13=
EXTT14=
EXTT15=
EXTT16=
EXTT17=
EXTT18=
EXTT19=
PLAYORDER=
